<svg viewBox="0 0 47 48" fill="none" xmlns="http://www.w3.org/2000/svg">
<g clip-path="url(#clip0_160_41)">
<path d="M23.1542 0.781097C16.8707 0.781097 16.0806 0.81004 13.6118 0.920023C11.143 1.03579 9.4614 1.42363 7.98821 1.99669C6.44293 2.57792 5.04326 3.48964 3.88702 4.66811C2.70926 5.82494 1.79766 7.22445 1.2156 8.7693C0.64253 10.2396 0.251802 11.9241 0.138925 14.3842C0.0289428 16.8588 0 17.6461 0 23.9382C0 30.2246 0.0289428 31.0118 0.138925 33.4807C0.254696 35.9466 0.64253 37.6282 1.2156 39.1013C1.80892 40.6237 2.59906 41.9146 3.88702 43.2025C5.17208 44.4905 6.46292 45.2835 7.98531 45.874C9.4614 46.447 11.1401 46.8377 13.606 46.9506C16.0777 47.0606 16.865 47.0895 23.1542 47.0895C29.4435 47.0895 30.2278 47.0606 32.6996 46.9506C35.1626 46.8349 36.8499 46.447 38.3231 45.874C39.8674 45.2924 41.2661 44.3807 42.4214 43.2025C43.7094 41.9146 44.4995 40.6237 45.0929 39.1013C45.663 37.6282 46.0538 35.9466 46.1695 33.4807C46.2795 31.0118 46.3084 30.2246 46.3084 23.9353C46.3084 17.6461 46.2795 16.8588 46.1695 14.3871C46.0538 11.9241 45.663 10.2396 45.0929 8.7693C44.5109 7.22441 43.5993 5.82489 42.4214 4.66811C41.2655 3.4892 39.8658 2.57742 38.3202 1.99669C36.8442 1.42363 35.1597 1.0329 32.6967 0.920023C30.2249 0.81004 29.4406 0.781097 23.1484 0.781097H23.1571H23.1542ZM21.079 4.95465H23.1571C29.3393 4.95465 30.0715 4.97491 32.5114 5.08778C34.769 5.18908 35.9961 5.56823 36.8123 5.88371C37.8919 6.30338 38.6647 6.80698 39.4751 7.61738C40.2855 8.42778 40.7862 9.19766 41.2058 10.2801C41.5242 11.0934 41.9005 12.3206 42.0018 14.5781C42.1146 17.018 42.1378 17.7502 42.1378 23.9295C42.1378 30.1088 42.1146 30.844 42.0018 33.2838C41.9005 35.5414 41.5213 36.7657 41.2058 37.5818C40.8346 38.5872 40.2421 39.4962 39.4722 40.2417C38.6618 41.0521 37.8919 41.5528 36.8094 41.9725C35.999 42.2908 34.7719 42.6671 32.5114 42.7713C30.0715 42.8813 29.3393 42.9073 23.1571 42.9073C16.9749 42.9073 16.2398 42.8813 13.7999 42.7713C11.5424 42.6671 10.3181 42.2908 9.50191 41.9725C8.49615 41.6018 7.58627 41.0103 6.83918 40.2417C6.06858 39.4951 5.47517 38.5852 5.10261 37.5789C4.78714 36.7657 4.40799 35.5385 4.30669 33.2809C4.1967 30.8411 4.17355 30.1088 4.17355 23.9237C4.17355 17.7416 4.1967 17.0122 4.30669 14.5723C4.41088 12.3148 4.78714 11.0876 5.10551 10.2714C5.52518 9.19187 6.02878 8.4191 6.83918 7.6087C7.64958 6.7983 8.41945 6.29759 9.50191 5.87792C10.3181 5.55955 11.5424 5.18329 13.7999 5.0791C15.9359 4.98069 16.7637 4.95175 21.079 4.94886V4.95465ZM35.5157 8.79825C35.1508 8.79825 34.7895 8.87012 34.4524 9.00975C34.1153 9.14938 33.809 9.35404 33.551 9.61205C33.293 9.87006 33.0883 10.1764 32.9487 10.5135C32.809 10.8506 32.7372 11.2119 32.7372 11.5768C32.7372 11.9416 32.809 12.3029 32.9487 12.64C33.0883 12.9771 33.293 13.2834 33.551 13.5415C33.809 13.7995 34.1153 14.0041 34.4524 14.1438C34.7895 14.2834 35.1508 14.3553 35.5157 14.3553C36.2526 14.3553 36.9593 14.0625 37.4804 13.5415C38.0015 13.0204 38.2942 12.3137 38.2942 11.5768C38.2942 10.8398 38.0015 10.1331 37.4804 9.61205C36.9593 9.09098 36.2526 8.79825 35.5157 8.79825ZM23.1571 12.0456C21.5799 12.021 20.0136 12.3104 18.5494 12.897C17.0851 13.4835 15.7522 14.3555 14.6281 15.4621C13.5041 16.5687 12.6114 17.8879 12.0021 19.3429C11.3928 20.7978 11.079 22.3594 11.079 23.9368C11.079 25.5141 11.3928 27.0757 12.0021 28.5307C12.6114 29.9856 13.5041 31.3048 14.6281 32.4114C15.7522 33.5181 17.0851 34.39 18.5494 34.9766C20.0136 35.5631 21.5799 35.8525 23.1571 35.8279C26.2787 35.7792 29.256 34.505 31.4463 32.2803C33.6366 30.0555 34.8642 27.0587 34.8642 23.9368C34.8642 20.8148 33.6366 17.818 31.4463 15.5933C29.256 13.3686 26.2787 12.0943 23.1571 12.0456ZM23.1571 16.2163C25.2043 16.2163 27.1677 17.0295 28.6153 18.4771C30.0629 19.9247 30.8762 21.8881 30.8762 23.9353C30.8762 25.9825 30.0629 27.9459 28.6153 29.3935C27.1677 30.8411 25.2043 31.6544 23.1571 31.6544C21.1099 31.6544 19.1465 30.8411 17.6989 29.3935C16.2513 27.9459 15.4381 25.9825 15.4381 23.9353C15.4381 21.8881 16.2513 19.9247 17.6989 18.4771C19.1465 17.0295 21.1099 16.2163 23.1571 16.2163Z" fill="white"/>
</g>
<defs>
<clipPath id="clip0_160_41">
<rect width="46.3084" height="46.3084" fill="white" transform="translate(0 0.781097)"/>
</clipPath>
</defs>
</svg>
