<svg width="559" height="307" viewBox="0 0 559 307" fill="none" xmlns="http://www.w3.org/2000/svg">
<path d="M42.496 259.409C35.1573 259.409 28.544 257.916 22.656 254.929C16.8533 251.857 12.288 247.633 8.96 242.257C5.71733 236.881 4.096 230.78 4.096 223.953C4.096 217.127 5.71733 211.025 8.96 205.649C12.288 200.273 16.8533 196.092 22.656 193.105C28.544 190.033 35.1573 188.497 42.496 188.497C49.7493 188.497 56.064 190.033 61.44 193.105C66.9013 196.092 70.8693 200.401 73.344 206.033L57.856 214.353C54.272 208.039 49.1093 204.881 42.368 204.881C37.1627 204.881 32.8533 206.588 29.44 210.001C26.0267 213.415 24.32 218.065 24.32 223.953C24.32 229.841 26.0267 234.492 29.44 237.905C32.8533 241.319 37.1627 243.025 42.368 243.025C49.1947 243.025 54.3573 239.868 57.856 233.553L73.344 242.001C70.8693 247.463 66.9013 251.729 61.44 254.801C56.064 257.873 49.7493 259.409 42.496 259.409ZM126.197 188.497C134.73 188.497 141.6 191.057 146.805 196.177C152.096 201.297 154.741 208.892 154.741 218.961V258.385H134.773V222.033C134.773 216.572 133.578 212.519 131.189 209.873C128.8 207.143 125.344 205.777 120.821 205.777C115.786 205.777 111.776 207.356 108.789 210.513C105.802 213.585 104.309 218.193 104.309 224.337V258.385H84.341V163.409H104.309V196.689C106.954 194.044 110.154 192.039 113.909 190.673C117.664 189.223 121.76 188.497 126.197 188.497ZM208.279 243.409C211.863 243.409 215.02 242.897 217.751 241.873C220.567 240.764 223.17 239.057 225.559 236.753L236.183 248.273C229.698 255.697 220.226 259.409 207.767 259.409C200.002 259.409 193.132 257.916 187.159 254.929C181.186 251.857 176.578 247.633 173.335 242.257C170.092 236.881 168.471 230.78 168.471 223.953C168.471 217.212 170.05 211.153 173.207 205.777C176.45 200.316 180.844 196.092 186.391 193.105C192.023 190.033 198.338 188.497 205.335 188.497C211.906 188.497 217.879 189.905 223.255 192.721C228.631 195.452 232.898 199.463 236.055 204.753C239.298 209.959 240.919 216.145 240.919 223.313L189.975 233.169C191.426 236.583 193.687 239.143 196.759 240.849C199.916 242.556 203.756 243.409 208.279 243.409ZM205.335 203.601C200.3 203.601 196.204 205.223 193.047 208.465C189.89 211.708 188.226 216.188 188.055 221.905L221.591 215.377C220.652 211.793 218.732 208.935 215.831 206.801C212.93 204.668 209.431 203.601 205.335 203.601ZM273.797 191.057H291.461V206.417H274.309V258.385H254.341V187.985C254.341 180.135 256.645 173.905 261.253 169.297C265.946 164.689 272.517 162.385 280.965 162.385C283.952 162.385 286.768 162.727 289.413 163.409C292.144 164.007 294.405 164.903 296.197 166.097L290.949 180.561C288.645 178.94 285.957 178.129 282.885 178.129C276.826 178.129 273.797 181.457 273.797 188.113V191.057Z" fill="#202020"/>
<path opacity="0.4" d="M402.509 187.406C453.431 187.406 494.712 146.125 494.712 95.2028C494.712 44.2806 453.431 3 402.509 3C351.587 3 310.306 44.2806 310.306 95.2028C310.306 146.125 351.587 187.406 402.509 187.406Z" stroke="black" stroke-width="4" stroke-miterlimit="10"/>
<path d="M312.179 116.351C302.089 66.443 332.904 15.2058 382.812 5.1759" stroke="#009C41" stroke-width="10" stroke-miterlimit="10" stroke-linecap="round"/>
<path d="M539.726 37.8029H357.556V75.264H539.726V37.8029Z" fill="#009C41"/>
<path d="M400.818 103.661H357.556V257.131H400.818V103.661Z" fill="#009C41"/>
<path d="M469.879 75.2634H426.617V257.192H469.879V75.2634Z" fill="#009C41"/>
</svg>
