<svg width="24" height="38" viewBox="0 0 24 38" fill="none" xmlns="http://www.w3.org/2000/svg">
<mask id="path-1-outside-1_15_90" maskUnits="userSpaceOnUse" x="0" y="0" width="24" height="38" fill="black">
<rect fill="white" width="24" height="38"/>
<path d="M22.7385 30.3171C22.6024 29.6025 22.4841 28.8755 22.3243 28.167C22.135 27.3168 21.8569 26.4851 21.5374 25.6781C21.2061 24.8402 20.5316 24.2549 19.7329 23.9161C18.946 23.5834 18.0645 23.5403 17.248 23.7929C16.7747 23.9407 16.325 24.0947 15.834 24.1748C15.7985 24.181 15.7275 24.1933 15.6328 24.1995C15.5382 24.2118 15.4376 24.218 15.337 24.218H15.0885C15.0471 24.2118 14.9998 24.2118 14.9524 24.2056C14.9406 24.2056 14.911 24.2056 14.8933 24.2056C14.7335 24.181 14.5738 24.1379 14.42 24.0824C14.4081 24.0763 14.3785 24.0639 14.3667 24.0578H14.3549C14.3253 24.0393 14.2957 24.0208 14.2661 24.0085C14.1951 23.9715 14.1241 23.9284 14.0531 23.8791C14.0413 23.8668 13.994 23.836 13.9762 23.8237H13.9703C13.9703 23.8237 13.923 23.7806 13.9111 23.7682C13.8401 23.7066 13.7751 23.645 13.7159 23.5772C13.5621 23.4047 13.497 23.3185 13.3787 23.1275C12.8935 22.3636 12.5918 21.5257 12.3196 20.6571C12.006 19.6652 11.7576 18.6548 11.515 17.6444C11.4203 17.244 11.3257 16.8435 11.2606 16.4369C11.2547 16.3938 11.2547 16.3753 11.2547 16.3753C11.2547 16.363 11.2547 16.3445 11.2547 16.3322C11.2487 16.2768 11.2428 16.2275 11.2369 16.1782C11.2369 16.0611 11.2251 15.9441 11.2251 15.827C11.2251 15.7346 11.231 15.636 11.2369 15.5375C11.2428 15.5375 11.2428 15.5313 11.2428 15.5251C11.2428 15.5067 11.2428 15.4882 11.2428 15.4697C11.2547 15.4143 11.2724 15.3526 11.2902 15.2972C11.2961 15.2787 11.3138 15.2171 11.3197 15.2048C11.3316 15.1863 11.3493 15.137 11.3612 15.1247C11.3848 15.0877 11.4026 15.0446 11.4322 15.0138C11.444 14.9953 11.4736 14.9645 11.4795 14.9522C11.5091 14.9276 11.5386 14.8968 11.5682 14.8721L11.586 14.8536C11.586 14.8536 11.5919 14.8536 11.6037 14.8413H11.6096C11.6096 14.8413 11.6156 14.829 11.6215 14.829C11.6925 14.7797 11.7635 14.7304 11.8404 14.6934C11.8818 14.6688 11.9173 14.6503 11.9528 14.6318C11.9646 14.6318 12.012 14.6072 12.012 14.6072H12.0238C12.1125 14.5641 12.1954 14.5333 12.2841 14.5025C12.4734 14.4347 12.6628 14.3731 12.8521 14.3115C13.213 14.1883 13.5976 14.0527 13.9171 13.8186C14.1892 13.6276 14.4081 13.3874 14.5974 13.104C14.9702 12.5557 15.1181 11.878 15.195 11.2188C15.2719 10.5041 15.2305 9.78333 15.1418 9.07485C14.9643 7.65788 14.6211 6.27787 14.1892 4.9225C13.9999 4.32491 13.7987 3.73964 13.4497 3.21598C13.0237 2.56294 12.4616 2.00231 11.799 1.60802C11.0594 1.17061 10.2134 0.967303 9.3614 1.00427H9.34365C8.16628 1.06588 6.98891 1.10284 5.82337 1.31231C4.6815 1.52177 3.55146 1.9407 2.67583 2.75392C1.63454 3.73348 1.18489 5.15045 1.05473 6.56126C0.971897 7.48537 1.00148 8.42797 1.02514 9.35824C1.05473 10.3748 1.11389 11.3913 1.21447 12.4017C1.30913 13.3627 1.43338 14.33 1.63454 15.2726C1.85936 16.3199 2.09602 17.3611 2.35634 18.3961C2.84149 20.349 3.40355 22.2773 4.04844 24.1748C4.72883 26.1586 5.50389 28.0992 6.3381 30.0152C6.74042 30.9332 7.13091 31.845 7.69297 32.6705C8.21361 33.4283 8.81709 34.1244 9.51523 34.7097C10.8997 35.8803 12.5267 36.6195 14.2898 36.8721C16.0174 37.1247 17.8692 37.0323 19.4963 36.33C20.2831 35.9912 21.0464 35.5168 21.6972 34.95C22.3243 34.4017 22.8213 33.6439 22.9574 32.7999C23.0875 31.9805 22.8923 31.118 22.7385 30.3171ZM22.1291 32.5227V32.5658C22.1291 32.5658 22.1291 32.5781 22.1231 32.5843V32.6027C22.1231 32.6027 22.1113 32.6397 22.1113 32.6459C22.0995 32.7136 22.0817 32.7814 22.064 32.843C22.0048 33.0586 21.9693 33.1572 21.8806 33.342C21.8392 33.4221 21.7918 33.5022 21.7445 33.5761C21.7149 33.6193 21.6853 33.6624 21.6558 33.7055C21.6439 33.7178 21.638 33.7363 21.6321 33.7486C21.6321 33.7486 21.6262 33.7486 21.6203 33.761C21.6143 33.761 21.6084 33.7733 21.6025 33.7794C21.4842 33.9273 21.3599 34.0628 21.2239 34.1922C20.9458 34.451 20.65 34.6604 20.3009 34.8822C19.9636 35.0978 19.6146 35.3073 19.2537 35.4737C19.2359 35.4798 19.1886 35.4983 19.1827 35.5045C19.1413 35.5229 19.0939 35.5353 19.0525 35.5537C18.9579 35.5907 18.8632 35.6277 18.7626 35.6585C18.5674 35.7262 18.3662 35.7878 18.1651 35.8371C17.7627 35.9419 17.3723 36.0096 16.9936 36.0466C16.5676 36.0897 16.1357 36.1082 15.7097 36.102C15.4908 36.102 15.2719 36.0836 15.053 36.0651C14.8755 36.0528 14.6152 36.022 14.4909 36.0035C14.0709 35.9419 13.6508 35.8556 13.2367 35.7386C13.0473 35.6893 12.858 35.6277 12.6687 35.5599C12.574 35.5291 12.4794 35.4921 12.3847 35.4552C12.3433 35.4367 12.3019 35.4182 12.2605 35.3997C12.2368 35.3936 12.2131 35.3812 12.1954 35.3751C12.1954 35.3751 12.1895 35.3751 12.1776 35.3751H12.1717C10.6157 34.6728 9.27265 33.5084 8.33194 32.0729C7.79946 31.2535 7.42081 30.3541 7.03033 29.4546C6.62209 28.5182 6.23161 27.5817 5.86479 26.6268C5.15482 24.8094 4.52176 22.955 3.97153 21.076C3.39763 19.123 2.9184 17.1454 2.4865 15.1493C2.0901 13.2888 1.94811 11.3913 1.88894 9.4753C1.85936 8.56967 1.8357 7.64555 1.90078 6.73992C1.91261 6.64135 1.91853 6.54278 1.93036 6.45037C1.93036 6.40108 1.94219 6.3518 1.94811 6.30251V6.27787C1.94811 6.27787 1.95403 6.23474 1.95994 6.21626C1.98361 6.02528 2.01911 5.83429 2.06644 5.64947C2.10785 5.47697 2.14927 5.30447 2.20843 5.13197C2.2321 5.05804 2.25576 4.98411 2.28535 4.91018C2.29126 4.88554 2.30309 4.85473 2.31493 4.83009C2.31493 4.83009 2.33859 4.77465 2.34451 4.75C2.46875 4.47277 2.61075 4.20786 2.78233 3.96143C2.78233 3.96143 2.81782 3.9183 2.82966 3.89982C2.84149 3.88134 2.85924 3.85669 2.86516 3.85053C2.91249 3.79509 2.9539 3.7458 3.00123 3.69035C3.0959 3.58562 3.19056 3.48705 3.29706 3.38848C3.34439 3.34535 3.39172 3.30223 3.43905 3.26526C3.4568 3.24678 3.48047 3.2283 3.48047 3.2283C3.49821 3.21598 3.51596 3.20365 3.53371 3.18517C3.64613 3.10508 3.75854 3.02499 3.87095 2.95722C3.98336 2.88946 4.09577 2.82169 4.2141 2.76624C4.27327 2.73544 4.33835 2.70463 4.39751 2.67383C4.39751 2.67383 4.40935 2.67383 4.41526 2.66767C4.45076 2.64919 4.46851 2.64303 4.49218 2.63071C4.49218 2.63071 4.50401 2.63071 4.51584 2.62454C5.02465 2.41508 5.56305 2.27954 6.10145 2.18097C6.17244 2.16865 6.24344 2.15633 6.31444 2.14401C6.34402 2.13785 6.37952 2.13785 6.41502 2.13168C6.43277 2.13168 6.45643 2.12552 6.47418 2.11936C6.61026 2.10704 6.74634 2.08856 6.8765 2.07008C7.16049 2.03927 7.44448 2.02079 7.72847 1.99615C8.26094 1.95918 8.79342 1.9407 9.3259 1.9099H9.34365C10.1365 1.87293 10.8523 2.0516 11.5091 2.47669C12.0593 2.82785 12.5326 3.34535 12.8639 3.9183C12.9408 4.05384 13.0118 4.18937 13.0769 4.33723C13.0888 4.36804 13.1006 4.39884 13.1183 4.4358V4.44813C13.1183 4.44813 13.1243 4.46045 13.1302 4.47277C13.1598 4.54054 13.1775 4.60214 13.2012 4.66991C13.284 4.91634 13.3609 5.16277 13.4378 5.41536C13.6331 6.04992 13.8106 6.69064 13.9585 7.33752C14.0413 7.68868 14.1182 8.046 14.1774 8.40333C14.207 8.58199 14.2365 8.76065 14.2602 8.93315C14.272 8.97011 14.272 9.00092 14.278 9.03788C14.278 9.0194 14.2898 9.11797 14.2898 9.13645C14.3016 9.22887 14.3135 9.32128 14.3194 9.41369C14.3549 9.76485 14.3726 10.1222 14.3726 10.4733C14.3726 10.6458 14.3667 10.8183 14.3549 10.9908C14.349 11.0648 14.343 11.1449 14.3312 11.2188V11.2496C14.3253 11.2927 14.3194 11.3358 14.3075 11.379C14.2839 11.5391 14.2543 11.6932 14.2129 11.841C14.1951 11.9088 14.1774 11.9766 14.1537 12.0443C14.1419 12.0751 14.13 12.1059 14.1182 12.1429C14.1123 12.1491 14.1064 12.1799 14.1005 12.1983C14.1005 12.1983 14.0985 12.2025 14.0945 12.2107L14.0886 12.2291C14.0768 12.2538 14.065 12.2784 14.0591 12.2846C14.0472 12.3154 14.0354 12.3462 14.0176 12.3708C13.9881 12.4386 13.9526 12.5002 13.9171 12.5557C13.8875 12.605 13.8579 12.6481 13.8224 12.6974C13.8224 12.6974 13.8224 12.7097 13.8165 12.7097C13.8165 12.7158 13.8106 12.7158 13.8106 12.722L13.7987 12.7343C13.7691 12.7713 13.7455 12.7959 13.7159 12.8267C13.6745 12.876 13.6331 12.9192 13.5857 12.9623C13.568 12.9746 13.5562 12.9869 13.5384 13.0054L13.5029 13.0362C13.5029 13.0362 13.4911 13.0424 13.4792 13.0485C13.4142 13.0978 13.3432 13.1409 13.2722 13.1779C13.2307 13.2025 13.1893 13.2272 13.142 13.2457C13.142 13.2518 13.0947 13.2703 13.071 13.2826C12.7279 13.4243 12.367 13.5229 12.0179 13.6523C11.2547 13.9295 10.5565 14.3854 10.4086 15.2787C10.2607 16.1535 10.4855 17.0407 10.6867 17.8847C10.9233 18.8643 11.16 19.85 11.4617 20.8111C11.7398 21.6982 12.0593 22.5915 12.5208 23.3924C12.929 24.0947 13.4852 24.6923 14.2425 24.9634C14.9702 25.2222 15.7807 25.1236 16.5144 24.9634C16.9877 24.8525 17.4373 24.6369 17.9106 24.5568C17.9106 24.5568 17.9757 24.5445 17.9935 24.5445C18.0408 24.5383 18.0941 24.5322 18.1473 24.5322C18.242 24.526 18.3366 24.526 18.4313 24.5322C18.5141 24.5322 18.591 24.5383 18.6739 24.5506C18.6739 24.5506 18.7449 24.5506 18.7567 24.563C18.8159 24.5753 18.875 24.5876 18.9342 24.5999C19.1117 24.6431 19.2892 24.6985 19.4667 24.7724C19.4785 24.7786 19.4844 24.7786 19.4844 24.7786C19.4963 24.7848 19.514 24.7909 19.5258 24.7971C19.5673 24.8156 19.6027 24.834 19.6442 24.8587C19.7388 24.908 19.8276 24.9573 19.9104 25.0189C20.082 25.1298 20.1352 25.1729 20.2831 25.3207C20.4429 25.4809 20.4902 25.5425 20.5967 25.715C20.6381 25.789 20.6795 25.869 20.715 25.9491V25.9615C20.715 25.9615 20.715 25.9676 20.7269 25.9738V25.9861L20.7505 26.0292L20.8393 26.2695C20.9221 26.4913 21.0049 26.7192 21.0819 26.9472C21.2061 27.3168 21.3244 27.6926 21.4191 28.0746C21.5907 28.7584 21.6972 29.4608 21.8273 30.1569C21.9042 30.5451 21.9812 30.9332 22.0403 31.3213C22.0758 31.5431 22.0877 31.6293 22.1113 31.8511C22.1291 32.036 22.1409 32.2269 22.135 32.4118C22.135 32.4487 22.135 32.4857 22.1291 32.5288V32.5227Z"/>
</mask>
<path d="M22.7385 30.3171C22.6024 29.6025 22.4841 28.8755 22.3243 28.167C22.135 27.3168 21.8569 26.4851 21.5374 25.6781C21.2061 24.8402 20.5316 24.2549 19.7329 23.9161C18.946 23.5834 18.0645 23.5403 17.248 23.7929C16.7747 23.9407 16.325 24.0947 15.834 24.1748C15.7985 24.181 15.7275 24.1933 15.6328 24.1995C15.5382 24.2118 15.4376 24.218 15.337 24.218H15.0885C15.0471 24.2118 14.9998 24.2118 14.9524 24.2056C14.9406 24.2056 14.911 24.2056 14.8933 24.2056C14.7335 24.181 14.5738 24.1379 14.42 24.0824C14.4081 24.0763 14.3785 24.0639 14.3667 24.0578H14.3549C14.3253 24.0393 14.2957 24.0208 14.2661 24.0085C14.1951 23.9715 14.1241 23.9284 14.0531 23.8791C14.0413 23.8668 13.994 23.836 13.9762 23.8237H13.9703C13.9703 23.8237 13.923 23.7806 13.9111 23.7682C13.8401 23.7066 13.7751 23.645 13.7159 23.5772C13.5621 23.4047 13.497 23.3185 13.3787 23.1275C12.8935 22.3636 12.5918 21.5257 12.3196 20.6571C12.006 19.6652 11.7576 18.6548 11.515 17.6444C11.4203 17.244 11.3257 16.8435 11.2606 16.4369C11.2547 16.3938 11.2547 16.3753 11.2547 16.3753C11.2547 16.363 11.2547 16.3445 11.2547 16.3322C11.2487 16.2768 11.2428 16.2275 11.2369 16.1782C11.2369 16.0611 11.2251 15.9441 11.2251 15.827C11.2251 15.7346 11.231 15.636 11.2369 15.5375C11.2428 15.5375 11.2428 15.5313 11.2428 15.5251C11.2428 15.5067 11.2428 15.4882 11.2428 15.4697C11.2547 15.4143 11.2724 15.3526 11.2902 15.2972C11.2961 15.2787 11.3138 15.2171 11.3197 15.2048C11.3316 15.1863 11.3493 15.137 11.3612 15.1247C11.3848 15.0877 11.4026 15.0446 11.4322 15.0138C11.444 14.9953 11.4736 14.9645 11.4795 14.9522C11.5091 14.9276 11.5386 14.8968 11.5682 14.8721L11.586 14.8536C11.586 14.8536 11.5919 14.8536 11.6037 14.8413H11.6096C11.6096 14.8413 11.6156 14.829 11.6215 14.829C11.6925 14.7797 11.7635 14.7304 11.8404 14.6934C11.8818 14.6688 11.9173 14.6503 11.9528 14.6318C11.9646 14.6318 12.012 14.6072 12.012 14.6072H12.0238C12.1125 14.5641 12.1954 14.5333 12.2841 14.5025C12.4734 14.4347 12.6628 14.3731 12.8521 14.3115C13.213 14.1883 13.5976 14.0527 13.9171 13.8186C14.1892 13.6276 14.4081 13.3874 14.5974 13.104C14.9702 12.5557 15.1181 11.878 15.195 11.2188C15.2719 10.5041 15.2305 9.78333 15.1418 9.07485C14.9643 7.65788 14.6211 6.27787 14.1892 4.9225C13.9999 4.32491 13.7987 3.73964 13.4497 3.21598C13.0237 2.56294 12.4616 2.00231 11.799 1.60802C11.0594 1.17061 10.2134 0.967303 9.3614 1.00427H9.34365C8.16628 1.06588 6.98891 1.10284 5.82337 1.31231C4.6815 1.52177 3.55146 1.9407 2.67583 2.75392C1.63454 3.73348 1.18489 5.15045 1.05473 6.56126C0.971897 7.48537 1.00148 8.42797 1.02514 9.35824C1.05473 10.3748 1.11389 11.3913 1.21447 12.4017C1.30913 13.3627 1.43338 14.33 1.63454 15.2726C1.85936 16.3199 2.09602 17.3611 2.35634 18.3961C2.84149 20.349 3.40355 22.2773 4.04844 24.1748C4.72883 26.1586 5.50389 28.0992 6.3381 30.0152C6.74042 30.9332 7.13091 31.845 7.69297 32.6705C8.21361 33.4283 8.81709 34.1244 9.51523 34.7097C10.8997 35.8803 12.5267 36.6195 14.2898 36.8721C16.0174 37.1247 17.8692 37.0323 19.4963 36.33C20.2831 35.9912 21.0464 35.5168 21.6972 34.95C22.3243 34.4017 22.8213 33.6439 22.9574 32.7999C23.0875 31.9805 22.8923 31.118 22.7385 30.3171ZM22.1291 32.5227V32.5658C22.1291 32.5658 22.1291 32.5781 22.1231 32.5843V32.6027C22.1231 32.6027 22.1113 32.6397 22.1113 32.6459C22.0995 32.7136 22.0817 32.7814 22.064 32.843C22.0048 33.0586 21.9693 33.1572 21.8806 33.342C21.8392 33.4221 21.7918 33.5022 21.7445 33.5761C21.7149 33.6193 21.6853 33.6624 21.6558 33.7055C21.6439 33.7178 21.638 33.7363 21.6321 33.7486C21.6321 33.7486 21.6262 33.7486 21.6203 33.761C21.6143 33.761 21.6084 33.7733 21.6025 33.7794C21.4842 33.9273 21.3599 34.0628 21.2239 34.1922C20.9458 34.451 20.65 34.6604 20.3009 34.8822C19.9636 35.0978 19.6146 35.3073 19.2537 35.4737C19.2359 35.4798 19.1886 35.4983 19.1827 35.5045C19.1413 35.5229 19.0939 35.5353 19.0525 35.5537C18.9579 35.5907 18.8632 35.6277 18.7626 35.6585C18.5674 35.7262 18.3662 35.7878 18.1651 35.8371C17.7627 35.9419 17.3723 36.0096 16.9936 36.0466C16.5676 36.0897 16.1357 36.1082 15.7097 36.102C15.4908 36.102 15.2719 36.0836 15.053 36.0651C14.8755 36.0528 14.6152 36.022 14.4909 36.0035C14.0709 35.9419 13.6508 35.8556 13.2367 35.7386C13.0473 35.6893 12.858 35.6277 12.6687 35.5599C12.574 35.5291 12.4794 35.4921 12.3847 35.4552C12.3433 35.4367 12.3019 35.4182 12.2605 35.3997C12.2368 35.3936 12.2131 35.3812 12.1954 35.3751C12.1954 35.3751 12.1895 35.3751 12.1776 35.3751H12.1717C10.6157 34.6728 9.27265 33.5084 8.33194 32.0729C7.79946 31.2535 7.42081 30.3541 7.03033 29.4546C6.62209 28.5182 6.23161 27.5817 5.86479 26.6268C5.15482 24.8094 4.52176 22.955 3.97153 21.076C3.39763 19.123 2.9184 17.1454 2.4865 15.1493C2.0901 13.2888 1.94811 11.3913 1.88894 9.4753C1.85936 8.56967 1.8357 7.64555 1.90078 6.73992C1.91261 6.64135 1.91853 6.54278 1.93036 6.45037C1.93036 6.40108 1.94219 6.3518 1.94811 6.30251V6.27787C1.94811 6.27787 1.95403 6.23474 1.95994 6.21626C1.98361 6.02528 2.01911 5.83429 2.06644 5.64947C2.10785 5.47697 2.14927 5.30447 2.20843 5.13197C2.2321 5.05804 2.25576 4.98411 2.28535 4.91018C2.29126 4.88554 2.30309 4.85473 2.31493 4.83009C2.31493 4.83009 2.33859 4.77465 2.34451 4.75C2.46875 4.47277 2.61075 4.20786 2.78233 3.96143C2.78233 3.96143 2.81782 3.9183 2.82966 3.89982C2.84149 3.88134 2.85924 3.85669 2.86516 3.85053C2.91249 3.79509 2.9539 3.7458 3.00123 3.69035C3.0959 3.58562 3.19056 3.48705 3.29706 3.38848C3.34439 3.34535 3.39172 3.30223 3.43905 3.26526C3.4568 3.24678 3.48047 3.2283 3.48047 3.2283C3.49821 3.21598 3.51596 3.20365 3.53371 3.18517C3.64613 3.10508 3.75854 3.02499 3.87095 2.95722C3.98336 2.88946 4.09577 2.82169 4.2141 2.76624C4.27327 2.73544 4.33835 2.70463 4.39751 2.67383C4.39751 2.67383 4.40935 2.67383 4.41526 2.66767C4.45076 2.64919 4.46851 2.64303 4.49218 2.63071C4.49218 2.63071 4.50401 2.63071 4.51584 2.62454C5.02465 2.41508 5.56305 2.27954 6.10145 2.18097C6.17244 2.16865 6.24344 2.15633 6.31444 2.14401C6.34402 2.13785 6.37952 2.13785 6.41502 2.13168C6.43277 2.13168 6.45643 2.12552 6.47418 2.11936C6.61026 2.10704 6.74634 2.08856 6.8765 2.07008C7.16049 2.03927 7.44448 2.02079 7.72847 1.99615C8.26094 1.95918 8.79342 1.9407 9.3259 1.9099H9.34365C10.1365 1.87293 10.8523 2.0516 11.5091 2.47669C12.0593 2.82785 12.5326 3.34535 12.8639 3.9183C12.9408 4.05384 13.0118 4.18937 13.0769 4.33723C13.0888 4.36804 13.1006 4.39884 13.1183 4.4358V4.44813C13.1183 4.44813 13.1243 4.46045 13.1302 4.47277C13.1598 4.54054 13.1775 4.60214 13.2012 4.66991C13.284 4.91634 13.3609 5.16277 13.4378 5.41536C13.6331 6.04992 13.8106 6.69064 13.9585 7.33752C14.0413 7.68868 14.1182 8.046 14.1774 8.40333C14.207 8.58199 14.2365 8.76065 14.2602 8.93315C14.272 8.97011 14.272 9.00092 14.278 9.03788C14.278 9.0194 14.2898 9.11797 14.2898 9.13645C14.3016 9.22887 14.3135 9.32128 14.3194 9.41369C14.3549 9.76485 14.3726 10.1222 14.3726 10.4733C14.3726 10.6458 14.3667 10.8183 14.3549 10.9908C14.349 11.0648 14.343 11.1449 14.3312 11.2188V11.2496C14.3253 11.2927 14.3194 11.3358 14.3075 11.379C14.2839 11.5391 14.2543 11.6932 14.2129 11.841C14.1951 11.9088 14.1774 11.9766 14.1537 12.0443C14.1419 12.0751 14.13 12.1059 14.1182 12.1429C14.1123 12.1491 14.1064 12.1799 14.1005 12.1983C14.1005 12.1983 14.0985 12.2025 14.0945 12.2107L14.0886 12.2291C14.0768 12.2538 14.065 12.2784 14.0591 12.2846C14.0472 12.3154 14.0354 12.3462 14.0176 12.3708C13.9881 12.4386 13.9526 12.5002 13.9171 12.5557C13.8875 12.605 13.8579 12.6481 13.8224 12.6974C13.8224 12.6974 13.8224 12.7097 13.8165 12.7097C13.8165 12.7158 13.8106 12.7158 13.8106 12.722L13.7987 12.7343C13.7691 12.7713 13.7455 12.7959 13.7159 12.8267C13.6745 12.876 13.6331 12.9192 13.5857 12.9623C13.568 12.9746 13.5562 12.9869 13.5384 13.0054L13.5029 13.0362C13.5029 13.0362 13.4911 13.0424 13.4792 13.0485C13.4142 13.0978 13.3432 13.1409 13.2722 13.1779C13.2307 13.2025 13.1893 13.2272 13.142 13.2457C13.142 13.2518 13.0947 13.2703 13.071 13.2826C12.7279 13.4243 12.367 13.5229 12.0179 13.6523C11.2547 13.9295 10.5565 14.3854 10.4086 15.2787C10.2607 16.1535 10.4855 17.0407 10.6867 17.8847C10.9233 18.8643 11.16 19.85 11.4617 20.8111C11.7398 21.6982 12.0593 22.5915 12.5208 23.3924C12.929 24.0947 13.4852 24.6923 14.2425 24.9634C14.9702 25.2222 15.7807 25.1236 16.5144 24.9634C16.9877 24.8525 17.4373 24.6369 17.9106 24.5568C17.9106 24.5568 17.9757 24.5445 17.9935 24.5445C18.0408 24.5383 18.0941 24.5322 18.1473 24.5322C18.242 24.526 18.3366 24.526 18.4313 24.5322C18.5141 24.5322 18.591 24.5383 18.6739 24.5506C18.6739 24.5506 18.7449 24.5506 18.7567 24.563C18.8159 24.5753 18.875 24.5876 18.9342 24.5999C19.1117 24.6431 19.2892 24.6985 19.4667 24.7724C19.4785 24.7786 19.4844 24.7786 19.4844 24.7786C19.4963 24.7848 19.514 24.7909 19.5258 24.7971C19.5673 24.8156 19.6027 24.834 19.6442 24.8587C19.7388 24.908 19.8276 24.9573 19.9104 25.0189C20.082 25.1298 20.1352 25.1729 20.2831 25.3207C20.4429 25.4809 20.4902 25.5425 20.5967 25.715C20.6381 25.789 20.6795 25.869 20.715 25.9491V25.9615C20.715 25.9615 20.715 25.9676 20.7269 25.9738V25.9861L20.7505 26.0292L20.8393 26.2695C20.9221 26.4913 21.0049 26.7192 21.0819 26.9472C21.2061 27.3168 21.3244 27.6926 21.4191 28.0746C21.5907 28.7584 21.6972 29.4608 21.8273 30.1569C21.9042 30.5451 21.9812 30.9332 22.0403 31.3213C22.0758 31.5431 22.0877 31.6293 22.1113 31.8511C22.1291 32.036 22.1409 32.2269 22.135 32.4118C22.135 32.4487 22.135 32.4857 22.1291 32.5288V32.5227Z" fill="white"/>
<path d="M22.7385 30.3171C22.6024 29.6025 22.4841 28.8755 22.3243 28.167C22.135 27.3168 21.8569 26.4851 21.5374 25.6781C21.2061 24.8402 20.5316 24.2549 19.7329 23.9161C18.946 23.5834 18.0645 23.5403 17.248 23.7929C16.7747 23.9407 16.325 24.0947 15.834 24.1748C15.7985 24.181 15.7275 24.1933 15.6328 24.1995C15.5382 24.2118 15.4376 24.218 15.337 24.218H15.0885C15.0471 24.2118 14.9998 24.2118 14.9524 24.2056C14.9406 24.2056 14.911 24.2056 14.8933 24.2056C14.7335 24.181 14.5738 24.1379 14.42 24.0824C14.4081 24.0763 14.3785 24.0639 14.3667 24.0578H14.3549C14.3253 24.0393 14.2957 24.0208 14.2661 24.0085C14.1951 23.9715 14.1241 23.9284 14.0531 23.8791C14.0413 23.8668 13.994 23.836 13.9762 23.8237H13.9703C13.9703 23.8237 13.923 23.7806 13.9111 23.7682C13.8401 23.7066 13.7751 23.645 13.7159 23.5772C13.5621 23.4047 13.497 23.3185 13.3787 23.1275C12.8935 22.3636 12.5918 21.5257 12.3196 20.6571C12.006 19.6652 11.7576 18.6548 11.515 17.6444C11.4203 17.244 11.3257 16.8435 11.2606 16.4369C11.2547 16.3938 11.2547 16.3753 11.2547 16.3753C11.2547 16.363 11.2547 16.3445 11.2547 16.3322C11.2487 16.2768 11.2428 16.2275 11.2369 16.1782C11.2369 16.0611 11.2251 15.9441 11.2251 15.827C11.2251 15.7346 11.231 15.636 11.2369 15.5375C11.2428 15.5375 11.2428 15.5313 11.2428 15.5251C11.2428 15.5067 11.2428 15.4882 11.2428 15.4697C11.2547 15.4143 11.2724 15.3526 11.2902 15.2972C11.2961 15.2787 11.3138 15.2171 11.3197 15.2048C11.3316 15.1863 11.3493 15.137 11.3612 15.1247C11.3848 15.0877 11.4026 15.0446 11.4322 15.0138C11.444 14.9953 11.4736 14.9645 11.4795 14.9522C11.5091 14.9276 11.5386 14.8968 11.5682 14.8721L11.586 14.8536C11.586 14.8536 11.5919 14.8536 11.6037 14.8413H11.6096C11.6096 14.8413 11.6156 14.829 11.6215 14.829C11.6925 14.7797 11.7635 14.7304 11.8404 14.6934C11.8818 14.6688 11.9173 14.6503 11.9528 14.6318C11.9646 14.6318 12.012 14.6072 12.012 14.6072H12.0238C12.1125 14.5641 12.1954 14.5333 12.2841 14.5025C12.4734 14.4347 12.6628 14.3731 12.8521 14.3115C13.213 14.1883 13.5976 14.0527 13.9171 13.8186C14.1892 13.6276 14.4081 13.3874 14.5974 13.104C14.9702 12.5557 15.1181 11.878 15.195 11.2188C15.2719 10.5041 15.2305 9.78333 15.1418 9.07485C14.9643 7.65788 14.6211 6.27787 14.1892 4.9225C13.9999 4.32491 13.7987 3.73964 13.4497 3.21598C13.0237 2.56294 12.4616 2.00231 11.799 1.60802C11.0594 1.17061 10.2134 0.967303 9.3614 1.00427H9.34365C8.16628 1.06588 6.98891 1.10284 5.82337 1.31231C4.6815 1.52177 3.55146 1.9407 2.67583 2.75392C1.63454 3.73348 1.18489 5.15045 1.05473 6.56126C0.971897 7.48537 1.00148 8.42797 1.02514 9.35824C1.05473 10.3748 1.11389 11.3913 1.21447 12.4017C1.30913 13.3627 1.43338 14.33 1.63454 15.2726C1.85936 16.3199 2.09602 17.3611 2.35634 18.3961C2.84149 20.349 3.40355 22.2773 4.04844 24.1748C4.72883 26.1586 5.50389 28.0992 6.3381 30.0152C6.74042 30.9332 7.13091 31.845 7.69297 32.6705C8.21361 33.4283 8.81709 34.1244 9.51523 34.7097C10.8997 35.8803 12.5267 36.6195 14.2898 36.8721C16.0174 37.1247 17.8692 37.0323 19.4963 36.33C20.2831 35.9912 21.0464 35.5168 21.6972 34.95C22.3243 34.4017 22.8213 33.6439 22.9574 32.7999C23.0875 31.9805 22.8923 31.118 22.7385 30.3171ZM22.1291 32.5227V32.5658C22.1291 32.5658 22.1291 32.5781 22.1231 32.5843V32.6027C22.1231 32.6027 22.1113 32.6397 22.1113 32.6459C22.0995 32.7136 22.0817 32.7814 22.064 32.843C22.0048 33.0586 21.9693 33.1572 21.8806 33.342C21.8392 33.4221 21.7918 33.5022 21.7445 33.5761C21.7149 33.6193 21.6853 33.6624 21.6558 33.7055C21.6439 33.7178 21.638 33.7363 21.6321 33.7486C21.6321 33.7486 21.6262 33.7486 21.6203 33.761C21.6143 33.761 21.6084 33.7733 21.6025 33.7794C21.4842 33.9273 21.3599 34.0628 21.2239 34.1922C20.9458 34.451 20.65 34.6604 20.3009 34.8822C19.9636 35.0978 19.6146 35.3073 19.2537 35.4737C19.2359 35.4798 19.1886 35.4983 19.1827 35.5045C19.1413 35.5229 19.0939 35.5353 19.0525 35.5537C18.9579 35.5907 18.8632 35.6277 18.7626 35.6585C18.5674 35.7262 18.3662 35.7878 18.1651 35.8371C17.7627 35.9419 17.3723 36.0096 16.9936 36.0466C16.5676 36.0897 16.1357 36.1082 15.7097 36.102C15.4908 36.102 15.2719 36.0836 15.053 36.0651C14.8755 36.0528 14.6152 36.022 14.4909 36.0035C14.0709 35.9419 13.6508 35.8556 13.2367 35.7386C13.0473 35.6893 12.858 35.6277 12.6687 35.5599C12.574 35.5291 12.4794 35.4921 12.3847 35.4552C12.3433 35.4367 12.3019 35.4182 12.2605 35.3997C12.2368 35.3936 12.2131 35.3812 12.1954 35.3751C12.1954 35.3751 12.1895 35.3751 12.1776 35.3751H12.1717C10.6157 34.6728 9.27265 33.5084 8.33194 32.0729C7.79946 31.2535 7.42081 30.3541 7.03033 29.4546C6.62209 28.5182 6.23161 27.5817 5.86479 26.6268C5.15482 24.8094 4.52176 22.955 3.97153 21.076C3.39763 19.123 2.9184 17.1454 2.4865 15.1493C2.0901 13.2888 1.94811 11.3913 1.88894 9.4753C1.85936 8.56967 1.8357 7.64555 1.90078 6.73992C1.91261 6.64135 1.91853 6.54278 1.93036 6.45037C1.93036 6.40108 1.94219 6.3518 1.94811 6.30251V6.27787C1.94811 6.27787 1.95403 6.23474 1.95994 6.21626C1.98361 6.02528 2.01911 5.83429 2.06644 5.64947C2.10785 5.47697 2.14927 5.30447 2.20843 5.13197C2.2321 5.05804 2.25576 4.98411 2.28535 4.91018C2.29126 4.88554 2.30309 4.85473 2.31493 4.83009C2.31493 4.83009 2.33859 4.77465 2.34451 4.75C2.46875 4.47277 2.61075 4.20786 2.78233 3.96143C2.78233 3.96143 2.81782 3.9183 2.82966 3.89982C2.84149 3.88134 2.85924 3.85669 2.86516 3.85053C2.91249 3.79509 2.9539 3.7458 3.00123 3.69035C3.0959 3.58562 3.19056 3.48705 3.29706 3.38848C3.34439 3.34535 3.39172 3.30223 3.43905 3.26526C3.4568 3.24678 3.48047 3.2283 3.48047 3.2283C3.49821 3.21598 3.51596 3.20365 3.53371 3.18517C3.64613 3.10508 3.75854 3.02499 3.87095 2.95722C3.98336 2.88946 4.09577 2.82169 4.2141 2.76624C4.27327 2.73544 4.33835 2.70463 4.39751 2.67383C4.39751 2.67383 4.40935 2.67383 4.41526 2.66767C4.45076 2.64919 4.46851 2.64303 4.49218 2.63071C4.49218 2.63071 4.50401 2.63071 4.51584 2.62454C5.02465 2.41508 5.56305 2.27954 6.10145 2.18097C6.17244 2.16865 6.24344 2.15633 6.31444 2.14401C6.34402 2.13785 6.37952 2.13785 6.41502 2.13168C6.43277 2.13168 6.45643 2.12552 6.47418 2.11936C6.61026 2.10704 6.74634 2.08856 6.8765 2.07008C7.16049 2.03927 7.44448 2.02079 7.72847 1.99615C8.26094 1.95918 8.79342 1.9407 9.3259 1.9099H9.34365C10.1365 1.87293 10.8523 2.0516 11.5091 2.47669C12.0593 2.82785 12.5326 3.34535 12.8639 3.9183C12.9408 4.05384 13.0118 4.18937 13.0769 4.33723C13.0888 4.36804 13.1006 4.39884 13.1183 4.4358V4.44813C13.1183 4.44813 13.1243 4.46045 13.1302 4.47277C13.1598 4.54054 13.1775 4.60214 13.2012 4.66991C13.284 4.91634 13.3609 5.16277 13.4378 5.41536C13.6331 6.04992 13.8106 6.69064 13.9585 7.33752C14.0413 7.68868 14.1182 8.046 14.1774 8.40333C14.207 8.58199 14.2365 8.76065 14.2602 8.93315C14.272 8.97011 14.272 9.00092 14.278 9.03788C14.278 9.0194 14.2898 9.11797 14.2898 9.13645C14.3016 9.22887 14.3135 9.32128 14.3194 9.41369C14.3549 9.76485 14.3726 10.1222 14.3726 10.4733C14.3726 10.6458 14.3667 10.8183 14.3549 10.9908C14.349 11.0648 14.343 11.1449 14.3312 11.2188V11.2496C14.3253 11.2927 14.3194 11.3358 14.3075 11.379C14.2839 11.5391 14.2543 11.6932 14.2129 11.841C14.1951 11.9088 14.1774 11.9766 14.1537 12.0443C14.1419 12.0751 14.13 12.1059 14.1182 12.1429C14.1123 12.1491 14.1064 12.1799 14.1005 12.1983C14.1005 12.1983 14.0985 12.2025 14.0945 12.2107L14.0886 12.2291C14.0768 12.2538 14.065 12.2784 14.0591 12.2846C14.0472 12.3154 14.0354 12.3462 14.0176 12.3708C13.9881 12.4386 13.9526 12.5002 13.9171 12.5557C13.8875 12.605 13.8579 12.6481 13.8224 12.6974C13.8224 12.6974 13.8224 12.7097 13.8165 12.7097C13.8165 12.7158 13.8106 12.7158 13.8106 12.722L13.7987 12.7343C13.7691 12.7713 13.7455 12.7959 13.7159 12.8267C13.6745 12.876 13.6331 12.9192 13.5857 12.9623C13.568 12.9746 13.5562 12.9869 13.5384 13.0054L13.5029 13.0362C13.5029 13.0362 13.4911 13.0424 13.4792 13.0485C13.4142 13.0978 13.3432 13.1409 13.2722 13.1779C13.2307 13.2025 13.1893 13.2272 13.142 13.2457C13.142 13.2518 13.0947 13.2703 13.071 13.2826C12.7279 13.4243 12.367 13.5229 12.0179 13.6523C11.2547 13.9295 10.5565 14.3854 10.4086 15.2787C10.2607 16.1535 10.4855 17.0407 10.6867 17.8847C10.9233 18.8643 11.16 19.85 11.4617 20.8111C11.7398 21.6982 12.0593 22.5915 12.5208 23.3924C12.929 24.0947 13.4852 24.6923 14.2425 24.9634C14.9702 25.2222 15.7807 25.1236 16.5144 24.9634C16.9877 24.8525 17.4373 24.6369 17.9106 24.5568C17.9106 24.5568 17.9757 24.5445 17.9935 24.5445C18.0408 24.5383 18.0941 24.5322 18.1473 24.5322C18.242 24.526 18.3366 24.526 18.4313 24.5322C18.5141 24.5322 18.591 24.5383 18.6739 24.5506C18.6739 24.5506 18.7449 24.5506 18.7567 24.563C18.8159 24.5753 18.875 24.5876 18.9342 24.5999C19.1117 24.6431 19.2892 24.6985 19.4667 24.7724C19.4785 24.7786 19.4844 24.7786 19.4844 24.7786C19.4963 24.7848 19.514 24.7909 19.5258 24.7971C19.5673 24.8156 19.6027 24.834 19.6442 24.8587C19.7388 24.908 19.8276 24.9573 19.9104 25.0189C20.082 25.1298 20.1352 25.1729 20.2831 25.3207C20.4429 25.4809 20.4902 25.5425 20.5967 25.715C20.6381 25.789 20.6795 25.869 20.715 25.9491V25.9615C20.715 25.9615 20.715 25.9676 20.7269 25.9738V25.9861L20.7505 26.0292L20.8393 26.2695C20.9221 26.4913 21.0049 26.7192 21.0819 26.9472C21.2061 27.3168 21.3244 27.6926 21.4191 28.0746C21.5907 28.7584 21.6972 29.4608 21.8273 30.1569C21.9042 30.5451 21.9812 30.9332 22.0403 31.3213C22.0758 31.5431 22.0877 31.6293 22.1113 31.8511C22.1291 32.036 22.1409 32.2269 22.135 32.4118C22.135 32.4487 22.135 32.4857 22.1291 32.5288V32.5227Z" stroke="white" stroke-width="0.2" mask="url(#path-1-outside-1_15_90)"/>
</svg>
