<svg viewBox="0 0 54 39" fill="none" xmlns="http://www.w3.org/2000/svg">
<path d="M32.2232 19.1704L23.5212 24.143V14.1979L32.2232 19.1704Z" fill="white" stroke="white" stroke-width="3" stroke-linecap="round" stroke-linejoin="round"/>
<path d="M2.38788 21.3159V17.7978C2.38788 10.6 2.38788 6.99987 4.63796 4.68515C6.89053 2.36794 10.436 2.26848 17.5243 2.0671C20.8808 1.97262 24.3119 1.90549 27.2507 1.90549C30.187 1.90549 33.618 1.97262 36.977 2.0671C44.0654 2.26848 47.6108 2.36794 49.8609 4.68515C52.1135 6.99987 52.1135 10.6025 52.1135 17.7978V21.3159C52.1135 28.5161 52.1135 32.1138 49.8634 34.431C47.6108 36.7457 44.0679 36.8477 36.977 37.0466C33.6205 37.1435 30.1895 37.2107 27.2507 37.2107C24.008 37.2009 20.7655 37.1462 17.5243 37.0466C10.436 36.8477 6.89053 36.7482 4.63796 34.431C2.38788 32.1138 2.38788 28.5136 2.38788 21.3184V21.3159Z" stroke="white" stroke-width="3"/>
</svg>
